<svg width="86" height="115" viewBox="0 0 86 115" fill="none" xmlns="http://www.w3.org/2000/svg">
<path d="M26.6408 0.302734H34.148V32.9891C34.148 41.4929 27.8367 49.0001 18.2035 49.0001C10.8291 49.0001 5.38134 44.6818 3.18896 38.9019L9.89897 35.2479C11.0949 39.3669 15.4132 41.4929 18.2035 41.4929C22.0568 41.4929 26.6408 38.3704 26.6408 32.9891V0.302734ZM74.2389 35.9787L80.1517 41.8915C75.7005 46.2762 69.6548 49.0001 62.9448 49.0001C49.4584 49.0001 38.5629 38.1046 38.5629 24.6846C38.5629 11.1982 49.4584 0.302734 62.9448 0.302734C69.6548 0.302734 75.7669 3.02659 80.1517 7.47779L74.2389 13.3906C71.3157 10.4674 67.3296 8.67363 62.9448 8.67363C54.1089 8.67363 46.9338 15.8487 46.9338 24.6846C46.9338 33.4541 54.1089 40.6292 62.9448 40.6292C67.3296 40.6292 71.3157 38.8354 74.2389 35.9787ZM66.7316 24.6846C66.7316 22.4923 65.0043 20.7649 62.8784 20.7649C60.7524 20.7649 58.9587 22.4923 58.9587 24.6846C58.9587 26.8106 60.7524 28.5379 62.8784 28.5379C65.0043 28.5379 66.7316 26.8106 66.7316 24.6846ZM18.9343 95.8949H39.928V104H3.38827V95.8285C13.8187 90.5137 29.2982 79.4853 29.2982 71.048C29.2982 70.2508 29.0325 63.4079 20.4623 63.4079C17.3398 63.4079 15.0146 64.338 13.4201 66.1317C11.6928 68.0584 11.5599 70.3836 11.5599 71.048H3.45471C3.45471 63.2086 9.30106 55.3027 20.4623 55.3027C31.6235 55.3027 37.4034 63.2086 37.4034 71.048C37.4034 80.814 27.6374 89.7829 18.9343 95.8949ZM81.81 73.4397C81.81 80.814 77.3588 87.1919 70.9809 90.0486L81.212 104H71.0474L61.8792 91.5102H55.435L53.7741 83.3386H63.7394C69.1872 83.3386 73.6384 78.8874 73.6384 73.4397C73.6384 67.9919 69.1872 63.5408 63.7394 63.5408H52.3789V104H44.2073V63.5408V59.4217V55.3027H63.7394C73.7048 55.3027 81.81 63.4079 81.81 73.4397Z" fill="#4E4E4E"/>
</svg>
